<svg xmlns="http://www.w3.org/2000/svg" xmlns:xlink="http://www.w3.org/1999/xlink" xmlns:fi="http://pattern.flaticon.com/" x="0" y="0" width="700" height="350" viewBox="0 0 816.6666666666667 408.33333333333337"><rect x="0px" y="0px" width="100%" height="100%" opacity="1" fill="#ffffff"/><defs><g transform="matrix(0.02482638228815532 -0.031032976907015963 0.031032976907015963 0.02482638228815532 244.9861290774138 57.5512766725253)" id="L1_0"><path d="M501.28,194.37 335.26,159.33 250.64,12.27 250.64,419.77 405.54,489.01 387.56,320.29z" fill="#ffcd00"/><path d="M166.02,159.33 0,194.37 113.72,320.29 95.74,489.01 250.64,419.77 250.64,12.27z" fill="#ffda44"/></g><g transform="matrix(1.2713749408721924 0 0 1.2713749408721924 190 108.9999994956093)" id="L1_1"><path d="M43.079,36.702 40.482,38.581 37.229,36.598 38.745,40.045 35.819,42.069 39.109,42.028 39.879,45.315     41.513,41.976 45.145,41.68 42.521,39.966z"/><path d="M2.66,4.469 3.027,6.037 3.806,4.443 5.54,4.303 4.288,3.484 4.554,1.928 3.315,2.824 1.763,1.878 2.486,3.521     1.091,4.488z"/><path d="M40.661,5.471 41.028,7.039 41.807,5.445 43.541,5.305 42.289,4.486 42.555,2.93 41.316,3.826 39.764,2.88     40.487,4.522 39.092,5.49z"/><path d="M21.49,26.478c8.557-3.191,12.758-6.471,14.716-8.753c-2.473-5.522-8.007-9.376-14.45-9.376    c-8.746,0-15.836,7.09-15.836,15.836c0,1.861,0.337,3.639,0.927,5.298C9.105,29.665,13.459,29.278,21.49,26.478z"/><path d="M43.808,10.763c-3.319-1.146-5.783-0.594-9.172,2.097l1.922,2.399c1.784-0.433,2.519-0.146,2.213,1.533    c-0.306,1.68-4.703,6.641-16.862,11.175C7.904,32.85,5.511,30.987,4.901,30.797c-2.29-0.707-0.896-3.511-0.094-3.739    c-0.139-1.452-0.177-1.854-0.185-1.924c0.003,0.029,0.009,0.096,0.009,0.096s-2.916,0.396-3.946,2.399    c-1.03,2.003-1.03,4.942,0.916,7.288c4.083,4.695,16.134,2.265,22.794-0.059c12.615-4.703,21.934-10.89,22.696-17.305    C47.417,14.804,47.128,11.907,43.808,10.763z"/><path d="M24.795,36.405c-3.833,1.336-7.911,1.955-10.906,2.521c2.162,1.108,5.288,2.069,7.885,2.069    c6.827,0,12.619-4.33,14.84-10.388C33.408,32.713,29.44,34.673,24.795,36.405z"/></g><g transform="matrix(0.02482638228815532 -0.031032976907015963 0.031032976907015963 0.02482638228815532 215.98612909635483 174.55127668767815)"><path d="M501.28,194.37 335.26,159.33 250.64,12.27 250.64,419.77 405.54,489.01 387.56,320.29z" fill="#ffcd00"/><path d="M166.02,159.33 0,194.37 113.72,320.29 95.74,489.01 250.64,419.77 250.64,12.27z" fill="#ffda44"/></g><g transform="matrix(0.02482638228815532 -0.031032976907015963 0.031032976907015963 0.02482638228815532 278.98612911529585 77.55127670283102)"><path d="M501.28,194.37 335.26,159.33 250.64,12.27 250.64,419.77 405.54,489.01 387.56,320.29z" fill="#ffcd00"/><path d="M166.02,159.33 0,194.37 113.72,320.29 95.74,489.01 250.64,419.77 250.64,12.27z" fill="#ffda44"/></g><g transform="matrix(0.02482638228815532 -0.031032976907015963 0.031032976907015963 0.02482638228815532 71.98612913423692 80.55127671798388)"><path d="M501.28,194.37 335.26,159.33 250.64,12.27 250.64,419.77 405.54,489.01 387.56,320.29z" fill="#ffcd00"/><path d="M166.02,159.33 0,194.37 113.72,320.29 95.74,489.01 250.64,419.77 250.64,12.27z" fill="#ffda44"/></g><g transform="matrix(-0.32756680226335344 -0.02911703320069818 0.02911703320069818 -0.32756680226335344 49.0294090255008 357.0122198307297)" id="L1_2"><g><ellipse cx="146px" cy="133px" rx="20px" ry="20px" fill="#ffe600"/><path d="M146.616,157.911c-13.181,0-23.904-10.726-23.904-23.909c0-13.182,10.723-23.909,23.904-23.909   s23.904,10.726,23.904,23.909C170.519,147.184,159.796,157.911,146.616,157.911z M146.616,116.918   c-9.417,0-17.077,7.663-17.077,17.082s7.66,17.082,17.077,17.082c9.417,0,17.077-7.663,17.077-17.082   S156.031,116.918,146.616,116.918z" fill="#ffe600"/></g><path d="M20.257,93.01c-22.673,22.678-22.608,57.533,0.065,80.212c11.336,11.339,26.194,17.009,41.052,17.009  c18.668,0,35.97-9.87,46.799-25.079l96.498-140.462l-41.858,20.152" fill="#ffffff"/><path d="M61.374,193.643c-16.418,0-31.855-6.397-43.465-18.009c-23.854-23.859-23.881-61.213-0.065-85.038  c1.329-1.333,3.494-1.333,4.826,0c1.333,1.333,1.333,3.494,0,4.828c-21.461,21.47-21.436,53.878,0.065,75.385  c10.322,10.324,24.044,16.009,38.639,16.009c17.021,0,33.476-8.841,44.02-23.646l89.202-129.842l-30.302,14.589  c-1.693,0.817-3.736,0.104-4.555-1.596c-0.817-1.698-0.106-3.738,1.596-4.557l41.858-20.154c1.393-0.671,3.065-0.321,4.072,0.853  c1.007,1.174,1.099,2.879,0.222,4.154l-96.498,140.462C99.134,183.731,80.598,193.643,61.374,193.643z" fill="#602f75"/><circle cx="119" cy="96" r="10" fill="#ffe600"/><path d="M20.259,96.423c-1.024,0-2.034-0.459-2.707-1.331c-1.15-1.493-0.87-3.637,0.623-4.787l88.793-68.321  c0.937-0.72,2.178-0.905,3.28-0.492c1.104,0.415,1.917,1.37,2.149,2.526l3.415,17.08c0.37,1.848-0.828,3.647-2.676,4.017  c-1.865,0.365-3.649-0.829-4.018-2.678l-2.338-11.696L22.338,95.713C21.718,96.191,20.986,96.423,20.259,96.423z" fill="#602f75"/><g><circle cx="74" cy="55" r="10" fill="#00e7ff"/><path d="M74.898,69.094c-7.532,0-13.658-6.129-13.658-13.66c0-7.533,6.127-13.662,13.658-13.662   s13.658,6.129,13.658,13.662C88.556,62.965,82.429,69.094,74.898,69.094z M74.898,48.599c-3.767,0-6.832,3.065-6.832,6.835   c0,3.768,3.065,6.833,6.832,6.833s6.832-3.065,6.832-6.833C81.73,51.664,78.665,48.599,74.898,48.599z" fill="#00e7ff"/></g><path d="M90.352,103.171c-2.019-2.019-4.197-3.78-6.492-5.291c-1.737,3.188-5.076,5.376-8.962,5.376  c-5.658,0-10.245-4.588-10.245-10.249c0-0.575,0.078-1.13,0.169-1.679c-11.605-0.975-23.547,2.959-32.427,11.841  c-16.003,16.009-16.003,41.964,0,57.972s41.952,16.009,57.957,0C106.357,145.135,106.357,119.18,90.352,103.171z" fill="#ea3457"/><path d="M61.374,176.563c-11.858,0-23.006-4.62-31.391-13.007c-17.311-17.314-17.311-45.484,0-62.799  c9.248-9.252,22.064-13.93,35.123-12.831c0.951,0.08,1.821,0.553,2.406,1.302c0.585,0.751,0.829,1.712,0.676,2.65  c-0.073,0.452-0.123,0.818-0.123,1.128c0,3.768,3.065,6.835,6.832,6.835c2.47,0,4.755-1.379,5.965-3.598  c0.457-0.838,1.244-1.446,2.169-1.678c0.92-0.232,1.903-0.065,2.703,0.461c2.524,1.662,4.89,3.589,7.028,5.729  c17.311,17.314,17.311,45.484,0,62.799C84.382,171.945,73.234,176.563,61.374,176.563z M61.332,94.597  c-9.931,0.005-19.453,3.917-26.522,10.988c-14.648,14.652-14.648,38.492,0,53.146c7.095,7.098,16.531,11.006,26.563,11.006  c10.035,0,19.47-3.91,26.564-11.006c14.648-14.652,14.648-38.492,0-53.146l0,0c-1.06-1.062-2.186-2.06-3.367-2.987  c-2.528,2.57-5.996,4.074-9.673,4.074C67.904,106.67,62.12,101.386,61.332,94.597z" fill="#602f75"/><g><path d="M85.143,137.415c-5.649,0-10.243-4.596-10.243-10.245c0-5.649,4.594-10.245,10.243-10.245   s10.243,4.596,10.243,10.245C95.386,132.819,90.792,137.415,85.143,137.415z M85.143,123.75c-1.884,0-3.417,1.533-3.417,3.418   c0,1.886,1.533,3.418,3.417,3.418c1.884,0,3.417-1.534,3.417-3.418C88.56,125.284,87.027,123.75,85.143,123.75z" fill="#ffe600"/><path d="M61.238,157.911c-3.765,0-6.828-3.063-6.828-6.828s3.063-6.828,6.828-6.828   c3.765,0,6.828,3.063,6.828,6.828S65.004,157.911,61.238,157.911z M61.239,151.077v0.003V151.077z" fill="#ffe600"/><path d="M42.456,144.247c-6.589,0-11.952-5.362-11.952-11.953c0-6.591,5.362-11.953,11.952-11.953   s11.952,5.362,11.952,11.953C54.408,138.885,49.045,144.247,42.456,144.247z M42.456,127.167c-2.826,0-5.125,2.301-5.125,5.127   c0,2.826,2.299,5.127,5.125,5.127s5.125-2.301,5.125-5.127C47.581,129.467,45.282,127.167,42.456,127.167z" fill="#ffe600"/></g><path d="M88.558,72.513 167.106,17.857 132.955,72.513" fill="#ffffff"/><path d="M132.952,75.928c-0.618,0-1.244-0.169-1.806-0.519c-1.599-0.998-2.086-3.104-1.087-4.704  l25.329-40.537L90.507,75.315c-1.55,1.08-3.674,0.695-4.751-0.852c-1.077-1.548-0.695-3.674,0.852-4.751l78.546-54.656  c1.333-0.927,3.128-0.787,4.303,0.329c1.174,1.118,1.399,2.906,0.541,4.28l-34.15,54.656  C135.201,75.358,134.09,75.926,132.952,75.928z" fill="#602f75"/></g><g transform="matrix(0.4585914712324128 0.36571216843050924 -0.36571216843050924 0.4585914712324128 125.10503137609817 152.68639269313618)" id="L1_3"><g><path d="M138.984,124.099l-4.26-5.335c37.676-30.089,58.725-63.546,48.961-77.822   c-4.669-6.827-15.362-7.591-23.497-7.03l-0.469-6.81c14.244-0.98,24.462,2.471,29.6,9.986   C201.51,54.912,180.813,90.692,138.984,124.099z" fill="#602f75"/><path d="M28.658,174.034c-11.699,0-20.483-3.323-25.137-10.127c-5.217-7.627-4.627-18.601,1.708-31.734   l6.151,2.966c-3.635,7.535-6.972,17.971-2.224,24.914c9.281,13.568,44.928,7.63,84.768-14.119l3.27,5.992   C70.53,166.484,46.287,174.032,28.658,174.034z" fill="#602f75"/><path d="M35.676,102.468l-4.893-4.758c11.418-11.747,25.47-23.427,40.634-33.777   c13.498-9.213,27.237-17.005,40.835-23.163l2.816,6.219c-13.24,5.996-26.631,13.592-39.801,22.583   C60.472,79.669,46.781,91.044,35.676,102.468z" fill="#602f75"/><path d="M47.961,143.794c-5.692,0-9.702-1.664-11.967-4.977c-1.638-2.394-2.135-5.39-1.473-8.902   c2.417-12.844,21.381-33.311,47.191-50.927C97,68.553,112.625,60.496,125.71,56.301c14.551-4.664,24.375-4.014,28.409,1.884   c4.036,5.902,1.073,15.283-8.569,27.131c-8.668,10.653-21.864,22.265-37.151,32.7c-5.139,3.506-10.365,6.777-15.537,9.723   l-3.379-5.932c5.014-2.855,10.081-6.028,15.068-9.429c14.758-10.074,27.438-21.216,35.703-31.37   c8.503-10.45,9.747-16.748,8.23-18.968c-1.521-2.222-7.852-3.352-20.69,0.763c-12.477,4-27.476,11.75-42.233,21.825   c-26.796,18.289-42.585,37.262-44.334,46.551c-0.314,1.667-0.179,2.941,0.398,3.787c1.384,2.019,5.975,2.541,12.283,1.398   l1.217,6.717C52.502,143.556,50.111,143.794,47.961,143.794z" fill="#602f75"/></g><g><ellipse cx="137px" cy="35px" rx="13px" ry="13px" fill="#ea3457"/><path d="M137.332,52.825c-9.402,0-17.05-7.642-17.05-17.036c0-9.393,7.648-17.036,17.05-17.036   c9.402,0,17.051,7.642,17.051,17.036S146.734,52.825,137.332,52.825z M137.332,25.578c-5.637,0-10.223,4.581-10.223,10.209   c0,5.629,4.588,10.209,10.223,10.209c5.639,0,10.225-4.581,10.225-10.209S142.971,25.578,137.332,25.578z" fill="#ea3457"/></g><g><ellipse cx="18px" cy="114px" rx="10px" ry="10px" fill="#ffe600"/><path d="M18.005,127.751c-7.521,0-13.641-6.115-13.641-13.629c0-7.514,6.12-13.631,13.641-13.631   s13.641,6.115,13.641,13.631S25.527,127.751,18.005,127.751z M18.005,107.317c-3.758,0-6.815,3.053-6.815,6.804   s3.057,6.803,6.815,6.803s6.815-3.052,6.815-6.803S21.763,107.317,18.005,107.317z" fill="#ffe600"/></g><g><ellipse cx="72px" cy="131px" rx="10px" ry="10px" fill="#00e7ff"/><path d="M72.556,144.78c-7.521,0-13.641-6.115-13.641-13.631s6.12-13.631,13.641-13.631   c7.521,0,13.641,6.115,13.641,13.631S80.077,144.78,72.556,144.78z M72.556,124.344c-3.758,0-6.815,3.053-6.815,6.804   s3.057,6.804,6.815,6.804c3.758,0,6.815-3.053,6.815-6.804S76.314,124.344,72.556,124.344z" fill="#00e7ff"/></g><g><ellipse cx="116px" cy="134px" rx="13px" ry="13px" fill="#ffe600"/><path d="M116.878,151.591c-9.402,0-17.051-7.642-17.051-17.036s7.649-17.036,17.051-17.036   s17.05,7.642,17.05,17.036S126.278,151.591,116.878,151.591z M116.878,124.344c-5.639,0-10.225,4.581-10.225,10.209   s4.588,10.209,10.225,10.209c5.637,0,10.223-4.581,10.223-10.209S122.513,124.344,116.878,124.344z" fill="#ffe600"/></g></g><g transform="matrix(0.26833030581474304 0 0 0.26833030581474304 116 12.99999914836576)" id="L1_4"><path d="M155.605,77.996c-19.987-20.006-52.39-20.006-72.376,0s-19.987,52.439,0,72.445  s52.39,20.006,72.376,0S175.59,98.002,155.605,77.996z" fill="#ffe600"/><path d="M119.415,168.858c-14.582,0-28.291-5.683-38.603-16.005c-21.284-21.303-21.284-55.965,0-77.268  c10.312-10.322,24.021-16.005,38.603-16.005s28.291,5.683,38.603,16.005c21.284,21.303,21.284,55.965,0,77.268  C147.709,163.174,133.997,168.858,119.415,168.858z M119.415,66.406c-12.759,0-24.752,4.973-33.773,14.001  c-18.627,18.644-18.627,48.978,0,67.622c9.021,9.028,21.014,14.001,33.773,14.001s24.752-4.973,33.773-14.001  c18.627-18.644,18.627-48.978,0-67.622C144.167,71.38,132.175,66.406,119.415,66.406z" fill="#602f75"/><path d="M144.338,57.105c33.611-27.005,57.196-37.654,61.925-34.645  c4.169,6.571-17.906,49.466-73.503,105.115c-55.706,55.759-98.62,77.834-104.992,73.61c-3.381-5.086,9.68-32.952,42.747-71.902  c-1.83-5.967-2.516-12.192-2.118-18.367c-15.444,17.302-28.609,34.217-38.223,49.229c-16.48,25.735-20.434,42.308-12.083,50.666  c8.351,8.358,24.907,4.4,50.618-12.095c22.062-14.153,48.234-35.988,73.702-61.481s47.283-51.69,61.423-73.772  c16.48-25.735,20.434-42.308,12.083-50.666c-8.351-8.358-24.907-4.4-50.618,12.095c-11.653,7.477-24.455,17.101-37.693,28.273" fill="#ffffff"/><path d="M29.452,218.503c-5.279,0-10.025-1.524-13.776-5.277c-12.86-12.875,0.474-37.511,11.624-54.921  c9.597-14.985,22.929-32.159,38.552-49.664c0.968-1.085,2.519-1.439,3.866-0.876c1.343,0.561,2.181,1.913,2.089,3.367  c-0.379,5.876,0.287,11.646,1.975,17.149c0.341,1.113,0.092,2.323-0.662,3.21C40.81,169.55,31.142,192.345,30.65,198.33  c8.928-0.492,47.575-20.997,99.698-73.167c52.12-52.171,72.54-90.779,73.054-99.794c-5.385,0.486-24.296,8.182-56.924,34.396  c-1.468,1.178-3.618,0.945-4.799-0.524c-1.179-1.469-0.945-3.618,0.524-4.799c26.549-21.33,57.216-40.381,65.894-34.864  c0.423,0.268,0.782,0.628,1.05,1.051c6.484,10.213-22.299,57.636-73.969,109.355c-51.884,51.934-99.251,80.698-109.293,74.044  c-0.381-0.251-0.705-0.577-0.957-0.956c-6.117-9.197,16.23-44.218,41.803-74.602c-0.763-2.843-1.294-5.743-1.587-8.682  c-12.885,14.923-23.897,29.391-32.096,42.194c-15.27,23.846-19.49,39.462-12.544,46.415c6.944,6.944,22.543,2.724,46.36-12.556  c21.856-14.022,47.828-35.693,73.132-61.022s46.956-51.325,60.964-73.201c15.27-23.846,19.49-39.462,12.544-46.415  c-6.948-6.948-22.543-2.726-46.36,12.556c-11.47,7.359-24.032,16.782-37.337,28.008c-1.447,1.219-3.596,1.031-4.809-0.406  c-1.217-1.442-1.033-3.594,0.406-4.809c13.532-11.418,26.336-21.018,38.054-28.539c17.398-11.16,42.01-24.508,54.876-11.634  c12.86,12.875-0.474,37.511-11.624,54.921c-14.264,22.277-36.243,48.679-61.884,74.346c-25.641,25.665-52.017,47.664-74.276,61.943  C58.226,209.497,42.276,218.501,29.452,218.503z" fill="#602f75"/><ellipse cx="187px" cy="172px" rx="20px" ry="20px" fill="#00e7ff"/><g><ellipse cx="28px" cy="78px" rx="25px" ry="25px" fill="#ea3457"/><path d="M29.001,107.387C13.01,107.387,0,94.365,0,78.36s13.01-29.027,29.001-29.027   S58.004,62.355,58.004,78.36S44.993,107.387,29.001,107.387z M29.001,56.161c-12.227,0-22.175,9.958-22.175,22.2   s9.948,22.2,22.175,22.2c12.228,0,22.176-9.958,22.176-22.2S41.23,56.161,29.001,56.161z" fill="#ea3457"/></g></g><g transform="matrix(0.02482638228815532 -0.031032976907015963 0.031032976907015963 0.02482638228815532 214.98612911529585 250.55127670283102)"><path d="M501.28,194.37 335.26,159.33 250.64,12.27 250.64,419.77 405.54,489.01 387.56,320.29z" fill="#ffcd00"/><path d="M166.02,159.33 0,194.37 113.72,320.29 95.74,489.01 250.64,419.77 250.64,12.27z" fill="#ffda44"/></g><g transform="matrix(0.0831315666437149 0 0 0.0831315666437149 323.1146860669131 173.13029105961323)" id="L1_5"><path d="M310.32,336.856l-48-64c-1.05-1.396-2.528-2.411-4.208-2.888l-112-32c-1.037-0.309-2.128-0.393-3.2-0.248l-64,8    c-3.251,0.452-5.896,2.843-6.672,6.032l-7.2,28.872L3.76,318.912c-3.346,2.091-4.667,6.31-3.112,9.936l24,56    c0.686,1.598,1.874,2.929,3.384,3.792l55.072,31.456l47.2,47.24c1.337,1.34,3.106,2.162,4.992,2.32l96,8c0.216,0,0.448,0,0.664,0    c1.731,0,3.415-0.561,4.8-1.6l64-48c1.79-1.343,2.936-3.374,3.16-5.6l8-80C312.11,340.455,311.538,338.455,310.32,336.856z     M288.384,417.4L229.6,461.472l-90.048-7.504L93.624,408.04c-0.501-0.504-1.069-0.938-1.688-1.288l-53.64-30.656l-20.24-47.2    l58.184-36.368c1.747-1.088,3.008-2.807,3.52-4.8l6.672-26.776l56.944-7.112L251.2,284.648L295.72,344L288.384,417.4z"/><path d="M220,309.696c-24.672,0-44,14.056-44,32c0,17.944,19.328,32,44,32s44-14.056,44-32    C264,323.752,244.672,309.696,220,309.696z M220,357.696c-16.504,0-28-8.432-28-16s11.504-16,28-16c16.504,0,28,8.432,28,16    S236.504,357.696,220,357.696z"/><path d="M128,357.696c0,1.992-8.512,8-24,8c-15.488,0-24-6.008-24-8H64c0,13.68,17.192,24,40,24s40-10.32,40-24H128z"/><path d="M200,405.696c-22.808,0-40,10.32-40,24h16c0-1.992,8.512-8,24-8c15.488,0,24,6.008,24,8h16    C240,416.016,222.808,405.696,200,405.696z"/><path d="M124,277.696c-20.52,0-36,10.32-36,24s15.48,24,36,24s36-10.32,36-24S144.52,277.696,124,277.696z M124,309.696    c-12.992,0-20-5.68-20-8s7.008-8,20-8s20,5.68,20,8S136.992,309.696,124,309.696z"/><rect x="184px" y="285px" width="16px" height="16px"/><rect x="202px" y="169px" width="147px" height="16px" transform="matrix(0.7071 -0.7071 0.7071 0.7071 -44.8075 247.2065)"/><rect x="266px" y="157px" width="203px" height="16px" transform="matrix(0.7071 -0.7071 0.7071 0.7071 -9.3932 308.7416)"/><rect x="51px" y="125px" width="248px" height="16px" transform="matrix(0.7071 -0.7071 0.7071 0.7071 -42.9969 163.6069)"/><rect x="276px" y="13px" width="22px" height="16px" transform="matrix(0.7071 -0.7071 0.7071 0.7071 69.0088 210.0005)"/><rect x="163px" y="151px" width="84px" height="16px" transform="matrix(0.7071 -0.7071 0.7071 0.7071 -52.5871 192.4442)"/><rect x="319px" y="297px" width="56px" height="16px" transform="matrix(0.7071 -0.7071 0.7071 0.7071 -114.2626 335.6204)"/><rect x="372px" y="233px" width="79px" height="16px" transform="matrix(0.7071 -0.7071 0.7071 0.7071 -50.2384 362.1226)"/><rect x="452px" y="181px" width="22px" height="16px" transform="matrix(0.7071 -0.7071 0.7071 0.7071 1.8011 383.6672)"/><rect x="342px" y="69px" width="67px" height="16px" transform="matrix(0.7071 -0.7071 0.7071 0.7071 55.2024 288.619)"/><rect x="452px" y="61px" width="22px" height="16px" transform="matrix(0.7071 -0.7071 0.7071 0.7071 86.6449 348.5193)"/><rect x="244px" y="101px" width="22px" height="16px" transform="matrix(0.7071 -0.7071 0.7071 0.7071 -2.5852 213.1512)"/><rect x="276px" y="69px" width="22px" height="16px" transform="matrix(0.7071 -0.7071 0.7071 0.7071 29.414 226.4063)"/><rect x="409px" y="13px" width="45px" height="16px" transform="matrix(0.7071 -0.7071 0.7071 0.7071 111.1941 311.8137)"/></g><g transform="matrix(0.02482638228815532 -0.031032976907015963 0.031032976907015963 0.02482638228815532 316.986129134237 347.5512767179839)"><path d="M501.28,194.37 335.26,159.33 250.64,12.27 250.64,419.77 405.54,489.01 387.56,320.29z" fill="#ffcd00"/><path d="M166.02,159.33 0,194.37 113.72,320.29 95.74,489.01 250.64,419.77 250.64,12.27z" fill="#ffda44"/></g></defs><g fi:class="KUsePattern"><pattern id="pattern_L1_0" width="350" height="350" patternUnits="userSpaceOnUse"><use xlink:href="#L1_0" x="-350" y="-350"/><use xlink:href="#L1_0" x="0" y="-350"/><use xlink:href="#L1_0" x="350" y="-350"/><use xlink:href="#L1_0" x="-350" y="0"/><use xlink:href="#L1_0" x="0" y="0"/><use xlink:href="#L1_0" x="350" y="0"/><use xlink:href="#L1_0" x="-350" y="350"/><use xlink:href="#L1_0" x="0" y="350"/><use xlink:href="#L1_0" x="350" y="350"/></pattern><rect x="0" y="0" width="100%" height="100%" fill="url(#pattern_L1_0)"/></g><g fi:class="KUsePattern"><pattern id="pattern_L1_1" width="350" height="350" patternUnits="userSpaceOnUse"><use xlink:href="#L1_1" x="-350" y="-350"/><use xlink:href="#L1_1" x="0" y="-350"/><use xlink:href="#L1_1" x="350" y="-350"/><use xlink:href="#L1_1" x="-350" y="0"/><use xlink:href="#L1_1" x="0" y="0"/><use xlink:href="#L1_1" x="350" y="0"/><use xlink:href="#L1_1" x="-350" y="350"/><use xlink:href="#L1_1" x="0" y="350"/><use xlink:href="#L1_1" x="350" y="350"/></pattern><rect x="0" y="0" width="100%" height="100%" fill="url(#pattern_L1_1)"/></g><g fi:class="KUsePattern" transform="matrix(1 0 0 1 20 20)"><pattern id="pattern_UNKNOWN" width="350" height="350" patternUnits="userSpaceOnUse"><use xlink:href="#UNKNOWN" x="-350" y="-350"/><use xlink:href="#UNKNOWN" x="0" y="-350"/><use xlink:href="#UNKNOWN" x="350" y="-350"/><use xlink:href="#UNKNOWN" x="-350" y="0"/><use xlink:href="#UNKNOWN" x="0" y="0"/><use xlink:href="#UNKNOWN" x="350" y="0"/><use xlink:href="#UNKNOWN" x="-350" y="350"/><use xlink:href="#UNKNOWN" x="0" y="350"/><use xlink:href="#UNKNOWN" x="350" y="350"/></pattern><rect x="0" y="0" width="100%" height="100%" fill="url(#pattern_UNKNOWN)"/></g><g fi:class="KUsePattern" transform="matrix(1 0 0 1 40 40)"><pattern id="pattern_UNKNOWN" width="350" height="350" patternUnits="userSpaceOnUse"><use xlink:href="#UNKNOWN" x="-350" y="-350"/><use xlink:href="#UNKNOWN" x="0" y="-350"/><use xlink:href="#UNKNOWN" x="350" y="-350"/><use xlink:href="#UNKNOWN" x="-350" y="0"/><use xlink:href="#UNKNOWN" x="0" y="0"/><use xlink:href="#UNKNOWN" x="350" y="0"/><use xlink:href="#UNKNOWN" x="-350" y="350"/><use xlink:href="#UNKNOWN" x="0" y="350"/><use xlink:href="#UNKNOWN" x="350" y="350"/></pattern><rect x="0" y="0" width="100%" height="100%" fill="url(#pattern_UNKNOWN)"/></g><g fi:class="KUsePattern" transform="matrix(1 0 0 1 60 60)"><pattern id="pattern_UNKNOWN" width="350" height="350" patternUnits="userSpaceOnUse"><use xlink:href="#UNKNOWN" x="-350" y="-350"/><use xlink:href="#UNKNOWN" x="0" y="-350"/><use xlink:href="#UNKNOWN" x="350" y="-350"/><use xlink:href="#UNKNOWN" x="-350" y="0"/><use xlink:href="#UNKNOWN" x="0" y="0"/><use xlink:href="#UNKNOWN" x="350" y="0"/><use xlink:href="#UNKNOWN" x="-350" y="350"/><use xlink:href="#UNKNOWN" x="0" y="350"/><use xlink:href="#UNKNOWN" x="350" y="350"/></pattern><rect x="0" y="0" width="100%" height="100%" fill="url(#pattern_UNKNOWN)"/></g><g fi:class="KUsePattern"><pattern id="pattern_L1_2" width="350" height="350" patternUnits="userSpaceOnUse"><use xlink:href="#L1_2" x="-350" y="-350"/><use xlink:href="#L1_2" x="0" y="-350"/><use xlink:href="#L1_2" x="350" y="-350"/><use xlink:href="#L1_2" x="-350" y="0"/><use xlink:href="#L1_2" x="0" y="0"/><use xlink:href="#L1_2" x="350" y="0"/><use xlink:href="#L1_2" x="-350" y="350"/><use xlink:href="#L1_2" x="0" y="350"/><use xlink:href="#L1_2" x="350" y="350"/></pattern><rect x="0" y="0" width="100%" height="100%" fill="url(#pattern_L1_2)"/></g><g fi:class="KUsePattern"><pattern id="pattern_L1_3" width="350" height="350" patternUnits="userSpaceOnUse"><use xlink:href="#L1_3" x="-350" y="-350"/><use xlink:href="#L1_3" x="0" y="-350"/><use xlink:href="#L1_3" x="350" y="-350"/><use xlink:href="#L1_3" x="-350" y="0"/><use xlink:href="#L1_3" x="0" y="0"/><use xlink:href="#L1_3" x="350" y="0"/><use xlink:href="#L1_3" x="-350" y="350"/><use xlink:href="#L1_3" x="0" y="350"/><use xlink:href="#L1_3" x="350" y="350"/></pattern><rect x="0" y="0" width="100%" height="100%" fill="url(#pattern_L1_3)"/></g><g fi:class="KUsePattern"><pattern id="pattern_L1_4" width="350" height="350" patternUnits="userSpaceOnUse"><use xlink:href="#L1_4" x="-350" y="-350"/><use xlink:href="#L1_4" x="0" y="-350"/><use xlink:href="#L1_4" x="350" y="-350"/><use xlink:href="#L1_4" x="-350" y="0"/><use xlink:href="#L1_4" x="0" y="0"/><use xlink:href="#L1_4" x="350" y="0"/><use xlink:href="#L1_4" x="-350" y="350"/><use xlink:href="#L1_4" x="0" y="350"/><use xlink:href="#L1_4" x="350" y="350"/></pattern><rect x="0" y="0" width="100%" height="100%" fill="url(#pattern_L1_4)"/></g><g fi:class="KUsePattern" transform="matrix(1 0 0 1 40 40)"><pattern id="pattern_UNKNOWN" width="350" height="350" patternUnits="userSpaceOnUse"><use xlink:href="#UNKNOWN" x="-350" y="-350"/><use xlink:href="#UNKNOWN" x="0" y="-350"/><use xlink:href="#UNKNOWN" x="350" y="-350"/><use xlink:href="#UNKNOWN" x="-350" y="0"/><use xlink:href="#UNKNOWN" x="0" y="0"/><use xlink:href="#UNKNOWN" x="350" y="0"/><use xlink:href="#UNKNOWN" x="-350" y="350"/><use xlink:href="#UNKNOWN" x="0" y="350"/><use xlink:href="#UNKNOWN" x="350" y="350"/></pattern><rect x="0" y="0" width="100%" height="100%" fill="url(#pattern_UNKNOWN)"/></g><g fi:class="KUsePattern"><pattern id="pattern_L1_5" width="350" height="350" patternUnits="userSpaceOnUse"><use xlink:href="#L1_5" x="-350" y="-350"/><use xlink:href="#L1_5" x="0" y="-350"/><use xlink:href="#L1_5" x="350" y="-350"/><use xlink:href="#L1_5" x="-350" y="0"/><use xlink:href="#L1_5" x="0" y="0"/><use xlink:href="#L1_5" x="350" y="0"/><use xlink:href="#L1_5" x="-350" y="350"/><use xlink:href="#L1_5" x="0" y="350"/><use xlink:href="#L1_5" x="350" y="350"/></pattern><rect x="0" y="0" width="100%" height="100%" fill="url(#pattern_L1_5)"/></g><g fi:class="KUsePattern" transform="matrix(1 0 0 1 60 60)"><pattern id="pattern_UNKNOWN" width="350" height="350" patternUnits="userSpaceOnUse"><use xlink:href="#UNKNOWN" x="-350" y="-350"/><use xlink:href="#UNKNOWN" x="0" y="-350"/><use xlink:href="#UNKNOWN" x="350" y="-350"/><use xlink:href="#UNKNOWN" x="-350" y="0"/><use xlink:href="#UNKNOWN" x="0" y="0"/><use xlink:href="#UNKNOWN" x="350" y="0"/><use xlink:href="#UNKNOWN" x="-350" y="350"/><use xlink:href="#UNKNOWN" x="0" y="350"/><use xlink:href="#UNKNOWN" x="350" y="350"/></pattern><rect x="0" y="0" width="100%" height="100%" fill="url(#pattern_UNKNOWN)"/></g></svg>